<mxfile host="www.draw.io" modified="2019-10-26T04:36:41.532Z" agent="Mozilla/5.0 (Windows NT 10.0; Win64; x64) AppleWebKit/537.36 (KHTML, like Gecko) Chrome/78.0.3904.70 Safari/537.36" etag="UsKvejtdqTjjCcJK6-_Q" version="12.1.7" type="github" pages="1">
  <diagram id="TIG-uFb0htTY-wS-UE1H" name="Page-1">
    <mxGraphModel dx="599" dy="632" grid="1" gridSize="10" guides="1" tooltips="1" connect="1" arrows="1" fold="1" page="1" pageScale="1" pageWidth="850" pageHeight="1100" math="0" shadow="0">
      <root>
        <mxCell id="0"/>
        <mxCell id="1" parent="0"/>
        <mxCell id="MjaS4E03RNLGlPyEigmo-27" value="" style="line;strokeWidth=1;fillColor=none;align=left;verticalAlign=middle;spacingTop=-1;spacingLeft=3;spacingRight=3;rotatable=0;labelPosition=right;points=[];portConstraint=eastwest;" parent="1" vertex="1">
          <mxGeometry x="178" y="100" width="142" height="8" as="geometry"/>
        </mxCell>
        <mxCell id="MjaS4E03RNLGlPyEigmo-1" value="MainMenu" style="swimlane;fontStyle=1;align=center;verticalAlign=top;childLayout=stackLayout;horizontal=1;startSize=26;horizontalStack=0;resizeParent=1;resizeParentMax=0;resizeLast=0;collapsible=1;marginBottom=0;" parent="1" vertex="1">
          <mxGeometry x="18" y="20" width="160" height="190" as="geometry"/>
        </mxCell>
        <mxCell id="MjaS4E03RNLGlPyEigmo-2" value="- numWins: integer&#xa;- shouldExit: boolean" style="text;strokeColor=none;fillColor=none;align=left;verticalAlign=top;spacingLeft=4;spacingRight=4;overflow=hidden;rotatable=0;points=[[0,0.5],[1,0.5]];portConstraint=eastwest;" parent="MjaS4E03RNLGlPyEigmo-1" vertex="1">
          <mxGeometry y="26" width="160" height="44" as="geometry"/>
        </mxCell>
        <mxCell id="MjaS4E03RNLGlPyEigmo-3" value="" style="line;strokeWidth=1;fillColor=none;align=left;verticalAlign=middle;spacingTop=-1;spacingLeft=3;spacingRight=3;rotatable=0;labelPosition=right;points=[];portConstraint=eastwest;" parent="MjaS4E03RNLGlPyEigmo-1" vertex="1">
          <mxGeometry y="70" width="160" height="8" as="geometry"/>
        </mxCell>
        <mxCell id="MjaS4E03RNLGlPyEigmo-4" value="- startGame( ): void&#xa;- getWins( ): void&#xa;- setWins( ): void&#xa;- howToPlay( ): void&#xa;- exitApp( ): void&#xa;- main( ): void&#xa;- invalidSpeech(String): boolean&#xa;" style="text;strokeColor=none;fillColor=none;align=left;verticalAlign=top;spacingLeft=4;spacingRight=4;overflow=hidden;rotatable=0;points=[[0,0.5],[1,0.5]];portConstraint=eastwest;" parent="MjaS4E03RNLGlPyEigmo-1" vertex="1">
          <mxGeometry y="78" width="160" height="112" as="geometry"/>
        </mxCell>
        <mxCell id="MjaS4E03RNLGlPyEigmo-9" value="Game" style="swimlane;fontStyle=1;align=center;verticalAlign=top;childLayout=stackLayout;horizontal=1;startSize=26;horizontalStack=0;resizeParent=1;resizeParentMax=0;resizeLast=0;collapsible=1;marginBottom=0;" parent="1" vertex="1">
          <mxGeometry x="310" y="90" width="160" height="130" as="geometry"/>
        </mxCell>
        <mxCell id="MjaS4E03RNLGlPyEigmo-10" value="theme: integer&#xa;isGameOver: boolean&#xa;+ deck: ArrayList&lt;Card&gt;&#xa;&#xa;" style="text;strokeColor=none;fillColor=none;align=left;verticalAlign=top;spacingLeft=4;spacingRight=4;overflow=hidden;rotatable=0;points=[[0,0.5],[1,0.5]];portConstraint=eastwest;" parent="MjaS4E03RNLGlPyEigmo-9" vertex="1">
          <mxGeometry y="26" width="160" height="54" as="geometry"/>
        </mxCell>
        <mxCell id="MjaS4E03RNLGlPyEigmo-11" value="" style="line;strokeWidth=1;fillColor=none;align=left;verticalAlign=middle;spacingTop=-1;spacingLeft=3;spacingRight=3;rotatable=0;labelPosition=right;points=[];portConstraint=eastwest;" parent="MjaS4E03RNLGlPyEigmo-9" vertex="1">
          <mxGeometry y="80" width="160" height="8" as="geometry"/>
        </mxCell>
        <mxCell id="MjaS4E03RNLGlPyEigmo-12" value="- gameLoop( ): Boolean&#xa;- invalidSpeech(String): boolean&#xa;" style="text;strokeColor=none;fillColor=none;align=left;verticalAlign=top;spacingLeft=4;spacingRight=4;overflow=hidden;rotatable=0;points=[[0,0.5],[1,0.5]];portConstraint=eastwest;" parent="MjaS4E03RNLGlPyEigmo-9" vertex="1">
          <mxGeometry y="88" width="160" height="42" as="geometry"/>
        </mxCell>
        <mxCell id="MjaS4E03RNLGlPyEigmo-13" value="Player" style="swimlane;fontStyle=3;align=center;verticalAlign=top;childLayout=stackLayout;horizontal=1;startSize=26;horizontalStack=0;resizeParent=1;resizeParentMax=0;resizeLast=0;collapsible=1;marginBottom=0;" parent="1" vertex="1">
          <mxGeometry x="600" y="170" width="160" height="190" as="geometry"/>
        </mxCell>
        <mxCell id="MjaS4E03RNLGlPyEigmo-14" value="- score: integer&#xa;- cards: ArrayList&lt;Card&gt;&#xa;- isTurn: boolean&#xa;" style="text;strokeColor=none;fillColor=none;align=left;verticalAlign=top;spacingLeft=4;spacingRight=4;overflow=hidden;rotatable=0;points=[[0,0.5],[1,0.5]];portConstraint=eastwest;fontStyle=2" parent="MjaS4E03RNLGlPyEigmo-13" vertex="1">
          <mxGeometry y="26" width="160" height="44" as="geometry"/>
        </mxCell>
        <mxCell id="MjaS4E03RNLGlPyEigmo-15" value="" style="line;strokeWidth=1;fillColor=none;align=left;verticalAlign=middle;spacingTop=-1;spacingLeft=3;spacingRight=3;rotatable=0;labelPosition=right;points=[];portConstraint=eastwest;" parent="MjaS4E03RNLGlPyEigmo-13" vertex="1">
          <mxGeometry y="70" width="160" height="8" as="geometry"/>
        </mxCell>
        <mxCell id="MjaS4E03RNLGlPyEigmo-16" value="+ getSizeHand(): integer&#xa;+ goFish( ): void &#xa;+ getCard( ): void&#xa;+ getScore( ): integer&#xa;+ getTurn( ): boolean&#xa;+ checkPairs( ): void&#xa;&#xa;&#xa;" style="text;strokeColor=none;fillColor=none;align=left;verticalAlign=top;spacingLeft=4;spacingRight=4;overflow=hidden;rotatable=0;points=[[0,0.5],[1,0.5]];portConstraint=eastwest;fontStyle=2" parent="MjaS4E03RNLGlPyEigmo-13" vertex="1">
          <mxGeometry y="78" width="160" height="112" as="geometry"/>
        </mxCell>
        <mxCell id="MjaS4E03RNLGlPyEigmo-26" value="&lt;span style=&quot;text-align: left ; white-space: nowrap&quot;&gt;startGame() &lt;br&gt;creates an &lt;br&gt;instance of Game&lt;/span&gt;" style="text;html=1;strokeColor=none;fillColor=none;align=center;verticalAlign=middle;whiteSpace=wrap;rounded=0;" parent="1" vertex="1">
          <mxGeometry x="200" y="40" width="100" height="60" as="geometry"/>
        </mxCell>
        <mxCell id="MjaS4E03RNLGlPyEigmo-31" value="&lt;div&gt;&lt;span style=&quot;white-space: nowrap&quot;&gt;gameLoop()&amp;nbsp;&lt;/span&gt;&lt;/div&gt;&lt;div&gt;&lt;span style=&quot;white-space: nowrap&quot;&gt;creates an&amp;nbsp;&lt;/span&gt;&lt;/div&gt;&lt;div&gt;&lt;span style=&quot;white-space: nowrap&quot;&gt;instance of a Player&amp;nbsp;&lt;/span&gt;&lt;/div&gt;&lt;div&gt;&lt;span style=&quot;white-space: nowrap&quot;&gt;(either Computer&amp;nbsp;&lt;/span&gt;&lt;/div&gt;&lt;div&gt;&lt;span style=&quot;white-space: nowrap&quot;&gt;or User)&lt;/span&gt;&lt;/div&gt;" style="text;html=1;strokeColor=none;fillColor=none;align=center;verticalAlign=middle;whiteSpace=wrap;rounded=0;" parent="1" vertex="1">
          <mxGeometry x="485" y="115" width="100" height="60" as="geometry"/>
        </mxCell>
        <mxCell id="MjaS4E03RNLGlPyEigmo-32" value="" style="line;strokeWidth=1;fillColor=none;align=left;verticalAlign=middle;spacingTop=-1;spacingLeft=3;spacingRight=3;rotatable=0;labelPosition=right;points=[];portConstraint=eastwest;" parent="1" vertex="1">
          <mxGeometry x="470" y="180" width="130" height="8" as="geometry"/>
        </mxCell>
        <mxCell id="MjaS4E03RNLGlPyEigmo-41" style="rounded=0;orthogonalLoop=1;jettySize=auto;html=1;exitX=0.5;exitY=0;exitDx=0;exitDy=0;entryX=0.397;entryY=1.063;entryDx=0;entryDy=0;entryPerimeter=0;" parent="1" source="MjaS4E03RNLGlPyEigmo-33" target="MjaS4E03RNLGlPyEigmo-16" edge="1">
          <mxGeometry relative="1" as="geometry"/>
        </mxCell>
        <mxCell id="MjaS4E03RNLGlPyEigmo-33" value="UserPlayer" style="swimlane;fontStyle=1;align=center;verticalAlign=top;childLayout=stackLayout;horizontal=1;startSize=26;horizontalStack=0;resizeParent=1;resizeParentMax=0;resizeLast=0;collapsible=1;marginBottom=0;" parent="1" vertex="1">
          <mxGeometry x="480" y="490" width="160" height="190" as="geometry"/>
        </mxCell>
        <mxCell id="MjaS4E03RNLGlPyEigmo-34" value="- score: integer&#xa;- cards: ArrayList&lt;Card&gt;&#xa;- isTurn: boolean&#xa;" style="text;strokeColor=none;fillColor=none;align=left;verticalAlign=top;spacingLeft=4;spacingRight=4;overflow=hidden;rotatable=0;points=[[0,0.5],[1,0.5]];portConstraint=eastwest;fontStyle=0" parent="MjaS4E03RNLGlPyEigmo-33" vertex="1">
          <mxGeometry y="26" width="160" height="44" as="geometry"/>
        </mxCell>
        <mxCell id="MjaS4E03RNLGlPyEigmo-35" value="" style="line;strokeWidth=1;fillColor=none;align=left;verticalAlign=middle;spacingTop=-1;spacingLeft=3;spacingRight=3;rotatable=0;labelPosition=right;points=[];portConstraint=eastwest;fontStyle=0" parent="MjaS4E03RNLGlPyEigmo-33" vertex="1">
          <mxGeometry y="70" width="160" height="8" as="geometry"/>
        </mxCell>
        <mxCell id="MjaS4E03RNLGlPyEigmo-36" value="+ getSizeHand(): integer&#xa;+ goFish( ): void &#xa;+ getCard( ): void&#xa;+ getScore( ): integer&#xa;+ getTurn( ): boolean&#xa;+ checkPairs( ): void&#xa;- invalidSpeech(String): boolean&#xa;&#xa;&#xa;&#xa;" style="text;strokeColor=none;fillColor=none;align=left;verticalAlign=top;spacingLeft=4;spacingRight=4;overflow=hidden;rotatable=0;points=[[0,0.5],[1,0.5]];portConstraint=eastwest;fontStyle=0" parent="MjaS4E03RNLGlPyEigmo-33" vertex="1">
          <mxGeometry y="78" width="160" height="112" as="geometry"/>
        </mxCell>
        <mxCell id="MjaS4E03RNLGlPyEigmo-44" style="edgeStyle=none;rounded=0;orthogonalLoop=1;jettySize=auto;html=1;exitX=0.5;exitY=0;exitDx=0;exitDy=0;entryX=0.509;entryY=1.063;entryDx=0;entryDy=0;entryPerimeter=0;" parent="1" source="MjaS4E03RNLGlPyEigmo-37" target="MjaS4E03RNLGlPyEigmo-16" edge="1">
          <mxGeometry relative="1" as="geometry"/>
        </mxCell>
        <mxCell id="MjaS4E03RNLGlPyEigmo-37" value="ComputerPlayer" style="swimlane;fontStyle=1;align=center;verticalAlign=top;childLayout=stackLayout;horizontal=1;startSize=26;horizontalStack=0;resizeParent=1;resizeParentMax=0;resizeLast=0;collapsible=1;marginBottom=0;" parent="1" vertex="1">
          <mxGeometry x="720" y="490" width="160" height="170" as="geometry"/>
        </mxCell>
        <mxCell id="MjaS4E03RNLGlPyEigmo-42" value="- score: integer&#xa;- cards: ArrayList&lt;Card&gt;&#xa;- isTurn: boolean&#xa;" style="text;strokeColor=none;fillColor=none;align=left;verticalAlign=top;spacingLeft=4;spacingRight=4;overflow=hidden;rotatable=0;points=[[0,0.5],[1,0.5]];portConstraint=eastwest;fontStyle=0" parent="MjaS4E03RNLGlPyEigmo-37" vertex="1">
          <mxGeometry y="26" width="160" height="44" as="geometry"/>
        </mxCell>
        <mxCell id="MjaS4E03RNLGlPyEigmo-39" value="" style="line;strokeWidth=1;fillColor=none;align=left;verticalAlign=middle;spacingTop=-1;spacingLeft=3;spacingRight=3;rotatable=0;labelPosition=right;points=[];portConstraint=eastwest;fontStyle=0" parent="MjaS4E03RNLGlPyEigmo-37" vertex="1">
          <mxGeometry y="70" width="160" height="8" as="geometry"/>
        </mxCell>
        <mxCell id="MjaS4E03RNLGlPyEigmo-40" value="+ getSizeHand(): integer&#xa;+ goFish( ): void &#xa;+ getCard( ): void&#xa;+ getScore( ): integer&#xa;+ getTurn( ): boolean&#xa;+ checkPairs( ): void&#xa;&#xa;&#xa;" style="text;strokeColor=none;fillColor=none;align=left;verticalAlign=top;spacingLeft=4;spacingRight=4;overflow=hidden;rotatable=0;points=[[0,0.5],[1,0.5]];portConstraint=eastwest;fontStyle=0" parent="MjaS4E03RNLGlPyEigmo-37" vertex="1">
          <mxGeometry y="78" width="160" height="92" as="geometry"/>
        </mxCell>
        <mxCell id="MjaS4E03RNLGlPyEigmo-45" value="Card" style="swimlane;fontStyle=1;align=center;verticalAlign=top;childLayout=stackLayout;horizontal=1;startSize=26;horizontalStack=0;resizeParent=1;resizeParentMax=0;resizeLast=0;collapsible=1;marginBottom=0;" parent="1" vertex="1">
          <mxGeometry x="20" y="280" width="160" height="130" as="geometry"/>
        </mxCell>
        <mxCell id="MjaS4E03RNLGlPyEigmo-46" value="- value: integer&#xa;- image: String" style="text;strokeColor=none;fillColor=none;align=left;verticalAlign=top;spacingLeft=4;spacingRight=4;overflow=hidden;rotatable=0;points=[[0,0.5],[1,0.5]];portConstraint=eastwest;" parent="MjaS4E03RNLGlPyEigmo-45" vertex="1">
          <mxGeometry y="26" width="160" height="44" as="geometry"/>
        </mxCell>
        <mxCell id="MjaS4E03RNLGlPyEigmo-47" value="" style="line;strokeWidth=1;fillColor=none;align=left;verticalAlign=middle;spacingTop=-1;spacingLeft=3;spacingRight=3;rotatable=0;labelPosition=right;points=[];portConstraint=eastwest;" parent="MjaS4E03RNLGlPyEigmo-45" vertex="1">
          <mxGeometry y="70" width="160" height="8" as="geometry"/>
        </mxCell>
        <mxCell id="MjaS4E03RNLGlPyEigmo-48" value="- getValue(): integer&#xa;- getImage(): String" style="text;strokeColor=none;fillColor=none;align=left;verticalAlign=top;spacingLeft=4;spacingRight=4;overflow=hidden;rotatable=0;points=[[0,0.5],[1,0.5]];portConstraint=eastwest;" parent="MjaS4E03RNLGlPyEigmo-45" vertex="1">
          <mxGeometry y="78" width="160" height="52" as="geometry"/>
        </mxCell>
        <mxCell id="MjaS4E03RNLGlPyEigmo-49" value="&lt;div&gt;&lt;span style=&quot;white-space: nowrap&quot;&gt;Card is associated with&lt;/span&gt;&lt;/div&gt;&lt;div&gt;&lt;span style=&quot;white-space: nowrap&quot;&gt;&amp;nbsp;the game class and&amp;nbsp;&lt;/span&gt;&lt;/div&gt;&lt;div&gt;&lt;span style=&quot;white-space: nowrap&quot;&gt;player class&lt;/span&gt;&lt;/div&gt;" style="text;html=1;strokeColor=none;fillColor=none;align=center;verticalAlign=middle;whiteSpace=wrap;rounded=0;" parent="1" vertex="1">
          <mxGeometry x="48" y="420" width="100" height="60" as="geometry"/>
        </mxCell>
      </root>
    </mxGraphModel>
  </diagram>
</mxfile>
